<?xml version="1.0" encoding="UTF-8"?>
<svg id="Capa_1" xmlns="http://www.w3.org/2000/svg" version="1.1" viewBox="0 0 1080 1080">
  <!-- Generator: Adobe Illustrator 30.1.0, SVG Export Plug-In . SVG Version: 2.1.1 Build 136)  -->
  <defs>
    <style>
      .st0 {
        fill: #fff;
      }
    </style>
  </defs>
  <path class="st0" d="M429,548.5c3,3.6,7.9.8,9.5-1.5.6-.9,1.3-1.8,1.9-2.8,55.3-80.2,187-241.6,289.2-172.6,42,28.3,71,87.9,85.4,135.3.5,1.7,12.7-39.5,15.7-49,.4-1.2,0-2.4-1.1-3.1l-17.1-11.5,9.9-32c3.4-10.9-23.4-6.7-32.8-11.5l2.4-42.3c.1-2.3,0-4.4-1.3-5.3-5-3.4-36-.3-46.2-2.7l-5.1-50.6c-1.5-15-24.4,8.6-37.1,10-1.2-13.1,9.6-54.4,4.4-59-1.6-1.4-3.7-.8-6.1.6l-44.2,26-24-76.5c-.7-2.3-2.2-3.5-3.9-3.6-6.9-.4-29.2,65.8-39.3,75.5l-30.1-103.6c-.6-2.2-2.2-3.8-4-3.8-1.8,0-3.2,1.7-3.7,4l-22.9,104.2-113.7-132.4c-1.4-2.3-2.7-3.2-4.8-2.7-1.7.4-3,1.8-3.3,4.6l14.2,198.1-173.9-49.4c-5.5-1.6-9.9,4.8-6.5,9.4,35.7,48.6,155.9,208.3,186.5,245.9.8,1,1.5,1.9,2.2,2.7Z"/>
  <path class="st0" d="M815,554.7c-16-71.5-90.4-215.7-180.8-157.4,53.6,28.7,93.9,70.2,109.6,128.1,10.2,35.1,13.2,70.3,12.3,107.3-2.1,86.5-39.9,179.4-116,224.6-58.8,34.9-127.3,26.1-178.4-17.7l35.1-4.3c16.6-1.5,29.2-18.3,24.7-34.8-1.1-3.9-8.3-4.4-11.6-4.1l-82.5,6.7c-23.6-29.5-39.5-70.1-48.4-108.4h.3s222.9-19.6,222.9-19.6c11.3-.9,19.7-10.8,18.8-22.2l-.9-11.5-.3-4.3h0c0-.6-.1-1.3-.2-1.9l-.3-3.5c-1.1-13.5-12.8-23.6-26.3-22.5l-221.5,19.4v-17.5c.5-32.5,6.7-62.5,16.5-92.7l-30.3-45.5c-19.4,45.7-28.5,92.2-30.1,140.4,0,0-.2,7.3,0,18.5h-.3s.3,0,.3,0c0,0,0,.1,0,.2l-26,2.1c-11.3.9-19.7,10.8-18.8,22.2l1,12.7,1,12.4c.9,11.3,10.8,19.8,22.1,18.9l27.7-2.2c15.7,79.4,56.8,156.9,123.3,204,27.2,19.2,56.9,33.6,90,38.6,43.2,6.5,85.9-3.7,123.7-24.9,73.1-41.2,120.9-119,140-200.5,11.7-3.5,19.2-11.5,20.1-23.9l8.5-110.5c1.2-15-9.8-25.8-25.2-26.3Z"/>
  <path class="st0" d="M407.5,744.1l2.6,5.7c.6,1.3,1.6,2.3,2.9,3.1l18.6,9.4c2,1.2,4.6,1.4,6.9.7l26.8-10.5c2.7-.9,4-3.6,2.9-6l-3.1-4.8c-.9-2-3.2-3.1-5.6-2.8l-23.5,7c-.2,0-.4,0-.5,0l-25.8-4.3c-1.5-.1-2.7,1.2-2.1,2.5Z"/>
</svg>